<svg width="268" height="194" viewBox="0 0 268 194" fill="none" xmlns="http://www.w3.org/2000/svg">
<g id="chart" clip-path="url(#clip0)">
<g id="chartContent">
<path id="Vector" d="M0 129.1V0H267V193H0V129.1Z" fill="url(#paint0_linear)"/>
<path id="Vector_2" opacity="0.44" d="M0.119995 66.25L18.06 51.25L45.95 72.25L84.81 80.25L101.74 48.25L116.69 64.25L141.59 35.25L170.49 71.25L194.4 43.25L203.36 58.25L228.27 27.25L267.12 69.25V192.25L1.12 193.25L0.119995 66.25Z" fill="#0085AD"/>
<path id="Vector_3" opacity="0.6" d="M0.119995 106.25L21.12 74.25L57.12 112.25L65.12 92.25L96.12 152.25L116.12 104.25L127.12 124.25L150.12 66.25L171.12 103.25L186.12 85.25L215.12 129.25L231.12 82.25L242.12 98.25L267.12 38.25V193.25H0.119995V106.25Z" fill="#0085AD"/>
<path id="Vector_4" d="M17.62 53.25C18.4484 53.25 19.12 52.5784 19.12 51.75C19.12 50.9216 18.4484 50.25 17.62 50.25C16.7916 50.25 16.12 50.9216 16.12 51.75C16.12 52.5784 16.7916 53.25 17.62 53.25Z" fill="white"/>
<path id="Vector_5" d="M45.62 74.25C46.4484 74.25 47.12 73.5784 47.12 72.75C47.12 71.9216 46.4484 71.25 45.62 71.25C44.7916 71.25 44.12 71.9216 44.12 72.75C44.12 73.5784 44.7916 74.25 45.62 74.25Z" fill="white"/>
<path id="Vector_6" d="M83.62 81.25C84.4484 81.25 85.12 80.5784 85.12 79.75C85.12 78.9216 84.4484 78.25 83.62 78.25C82.7916 78.25 82.12 78.9216 82.12 79.75C82.12 80.5784 82.7916 81.25 83.62 81.25Z" fill="white"/>
<path id="Vector_7" d="M101.62 50.25C102.448 50.25 103.12 49.5784 103.12 48.75C103.12 47.9216 102.448 47.25 101.62 47.25C100.792 47.25 100.12 47.9216 100.12 48.75C100.12 49.5784 100.792 50.25 101.62 50.25Z" fill="white"/>
<path id="Vector_8" d="M115.62 65.25C116.448 65.25 117.12 64.5784 117.12 63.75C117.12 62.9216 116.448 62.25 115.62 62.25C114.792 62.25 114.12 62.9216 114.12 63.75C114.12 64.5784 114.792 65.25 115.62 65.25Z" fill="white"/>
<path id="Vector_9" d="M170.62 72.25C171.448 72.25 172.12 71.5784 172.12 70.75C172.12 69.9216 171.448 69.25 170.62 69.25C169.792 69.25 169.12 69.9216 169.12 70.75C169.12 71.5784 169.792 72.25 170.62 72.25Z" fill="white"/>
<path id="Vector_10" d="M140.62 37.25C141.448 37.25 142.12 36.5784 142.12 35.75C142.12 34.9216 141.448 34.25 140.62 34.25C139.792 34.25 139.12 34.9216 139.12 35.75C139.12 36.5784 139.792 37.25 140.62 37.25Z" fill="white"/>
<path id="Vector_11" d="M194.62 45.25C195.448 45.25 196.12 44.5784 196.12 43.75C196.12 42.9216 195.448 42.25 194.62 42.25C193.792 42.25 193.12 42.9216 193.12 43.75C193.12 44.5784 193.792 45.25 194.62 45.25Z" fill="white"/>
<path id="Vector_12" d="M202.62 59.25C203.448 59.25 204.12 58.5784 204.12 57.75C204.12 56.9216 203.448 56.25 202.62 56.25C201.792 56.25 201.12 56.9216 201.12 57.75C201.12 58.5784 201.792 59.25 202.62 59.25Z" fill="white"/>
</g>
<path id="Vector_13" d="M227.62 29.25C228.448 29.25 229.12 28.5784 229.12 27.75C229.12 26.9216 228.448 26.25 227.62 26.25C226.792 26.25 226.12 26.9216 226.12 27.75C226.12 28.5784 226.792 29.25 227.62 29.25Z" fill="white"/>
</g>
<defs>
<linearGradient id="paint0_linear" x1="0" y1="96.5" x2="267" y2="96.5" gradientUnits="userSpaceOnUse">
<stop stop-color="#30C39E"/>
<stop offset="0.32" stop-color="#2EC3A1"/>
<stop offset="0.53" stop-color="#28C2AA"/>
<stop offset="0.71" stop-color="#1EC0B9"/>
<stop offset="0.87" stop-color="#0FBECE"/>
<stop offset="1" stop-color="#00BCE4"/>
</linearGradient>
<clipPath id="clip0">
<rect width="267.12" height="193.25" fill="white"/>
</clipPath>
</defs>
</svg>
