<svg id="Warstwa_1" data-name="Warstwa 1" xmlns="http://www.w3.org/2000/svg" xmlns:xlink="http://www.w3.org/1999/xlink" viewBox="0 0 267 193"><defs><style>.cls-1{fill:url(#Gradient_bez_nazwy_32);}.cls-2{fill:#efefef;}.cls-3{fill:url(#Gradient_bez_nazwy_29);}</style><linearGradient id="Gradient_bez_nazwy_32" y1="96.5" x2="267" y2="96.5" gradientUnits="userSpaceOnUse"><stop offset="0" stop-color="#d7410b"/><stop offset="0.39" stop-color="#da410a"/><stop offset="0.65" stop-color="#e24208"/><stop offset="0.86" stop-color="#f14304"/><stop offset="1" stop-color="#f40"/></linearGradient><linearGradient id="Gradient_bez_nazwy_29" x1="949.24" y1="534.51" x2="1093.46" y2="534.54" gradientUnits="userSpaceOnUse"><stop offset="0" stop-color="#fbbc05"/><stop offset="0.25" stop-color="#fbbd07"/><stop offset="0.39" stop-color="#fbbf0f"/><stop offset="0.5" stop-color="#fbc31d"/><stop offset="0.59" stop-color="#fcc831"/><stop offset="0.68" stop-color="#fccf4a"/><stop offset="0.76" stop-color="#fdd76a"/><stop offset="0.84" stop-color="#fde18f"/><stop offset="0.91" stop-color="#feedba"/><stop offset="0.97" stop-color="#fff9ea"/><stop offset="1" stop-color="#fff"/></linearGradient></defs><title>grafika7</title><polyline class="cls-1" points="0 129.1 0 0 267 0 267 193 0 193 0 129.1"/><path class="cls-2" d="M933,241" transform="translate(-826.88 -443.75)"/><path class="cls-3" d="M827,546l12-48,8,106,4-85,6,46,8-70,8,92,9-93,2,30,16-49,3,111s11-105,11-103,6,85,6,85l9-58,10,93,6-107,13,68,10-93,11,111,9-98,9,65,8-84,9,131,10-76,7,56,7-88,4,80,14-101,9,125,7-94,9,88,6-113,6,73" transform="translate(-826.88 -443.75)"/></svg>