<svg id="Warstwa_1" data-name="Warstwa 1" xmlns="http://www.w3.org/2000/svg" xmlns:xlink="http://www.w3.org/1999/xlink" viewBox="0 0 267 193"><defs><style>.cls-1{fill:url(#Gradient_bez_nazwy_3);}.cls-2{fill:url(#Gradient_bez_nazwy_7);}.cls-3{fill:none;stroke-miterlimit:10;stroke-width:13px;stroke:url(#Gradient_bez_nazwy_9);}.cls-4{font-size:26.44px;font-family:MyriadPro-Regular, Myriad Pro;}.cls-4,.cls-5{fill:#fff;}.cls-5{font-size:16px;font-family:Lato-Regular, Lato;}</style><linearGradient id="Gradient_bez_nazwy_3" y1="96.5" x2="267" y2="96.5" gradientUnits="userSpaceOnUse"><stop offset="0" stop-color="#53d769"/><stop offset="1" stop-color="#63a541"/></linearGradient><radialGradient id="Gradient_bez_nazwy_7" cx="1058.29" cy="644.5" r="248.44" gradientUnits="userSpaceOnUse"><stop offset="0.14" stop-color="#333"/><stop offset="1" stop-color="#898989"/></radialGradient><linearGradient id="Gradient_bez_nazwy_9" x1="904.81" y1="529.72" x2="1019.03" y2="529.72" xlink:href="#Gradient_bez_nazwy_7"/></defs><title>grafika7.1</title><polyline class="cls-1" points="0 129.1 0 0 267 0 267 193 0 193 0 129.1"/><path class="cls-2" d="M935.09,628.93c-14.12-8.68-23.47-23.79-23.47-41,0-20.87,15.31-34.82,17-36.25,2.47-2.12,15.64-13,34.23-12.49,23.67.63,51.2,19.56,51.2,48.74,0,17.18-9.34,32.29-23.46,41" transform="translate(-826.88 -443.75)"/><path class="cls-3" d="M928,558.19c-13.07-8-19.22-23.49-15.71-36.12A28,28,0,0,1,928,504a24.13,24.13,0,0,1,13-1.51h41.88a24.13,24.13,0,0,1,13,1.51,28,28,0,0,1,15.71,18.06c3.51,12.63-2.64,28.14-15.71,36.12" transform="translate(-826.88 -443.75)"/><text class="cls-4" transform="translate(117.81 148.88)">20</text><text class="cls-5" transform="translate(143.35 147.14)">Kg</text></svg>