<svg width="1703" height="2028" viewBox="0 0 1703 2028" fill="none" xmlns="http://www.w3.org/2000/svg">
<g id="grafika1.1 1" clip-path="url(#clip0)">
    <g id="lines">
        <path id="line4" d="M11.4 668.71C-15.93 531.83 66.58 409.55 122.58 326.55C253.58 132.45 515.92 -43.1499 691.48 18.5501C743.1 36.6901 779.84 72.7601 901.07 112.65C990.33 142.02 1006.67 134.4 1033.66 159.7C1114.25 235.25 1042.35 372.4 1110.66 424.89C1152.27 456.89 1201.53 423.3 1273.19 420.61C1450.05 413.96 1692.12 597.96 1696.64 818.39C1700.12 988.27 1562.32 1170.19 1422.9 1203.34C1384.42 1212.49 1339.75 1211.75 1315.97 1246.11C1280.41 1297.48 1329.12 1372.92 1345.91 1438.59C1389.38 1608.7 1247.06 1824.76 1106.38 1926.19C839.38 2118.73 444.48 1994.68 238.1 1785.04C198.35 1744.66 32.01 1606.42 62.74 1481.36C76.8 1424.12 123.58 1402.64 122.58 1335.96C121.39 1253.55 49.19 1233.47 49.9 1160.55C50.67 1080.79 137.5 1071.34 156.83 989.46C183.03 878.55 41.5 819.49 11.4 668.71Z" stroke="white" stroke-width="12" stroke-miterlimit="10"/>
        <path id="line3" d="M291.58 589.55C304.42 549.78 337.86 446.16 443.42 373.55C457.59 363.8 560.9 294.96 697.92 309.39C775.48 317.56 832.23 349.08 883.98 377.83C928.63 402.63 950.98 415.03 963.11 435.57C1008.41 512.15 926.9 609.48 967.38 651.57C984.51 669.38 1009.59 662.84 1052.93 662.26C1137.82 661.13 1242.98 683.52 1305.28 728.56C1400.36 797.29 1447.91 956.56 1392.97 1060.04C1356.91 1127.95 1296.73 1156.28 1296.73 1156.28C1245.27 1180.51 1209.67 1167.01 1191.94 1192.64C1169.68 1224.79 1210.04 1268.72 1221.88 1329.51C1248.34 1465.42 1114.69 1595.41 1097.88 1611.81C995.74 1711.14 872.32 1722.64 753.56 1733.71C632.49 1744.99 411.73 1765.56 319.42 1633.19C285.35 1584.33 254.65 1494.36 283.07 1419.33C300.94 1372.14 327.07 1370.84 334.39 1329.51C348.63 1249.51 256.79 1220.21 255.26 1128.51C254.03 1054.7 313 1044.6 315.14 955.28C316.54 896.95 291.74 886.99 276.65 812C255.21 705.72 282.99 616.14 291.58 589.55Z" stroke="white" stroke-width="10" stroke-miterlimit="10"/>
        <path id="line2" d="M362.13 812C351.74 752.9 346.58 723.36 349.3 696.55C356.92 622.55 399.12 570.39 419.88 544.71C456.58 499.24 495.06 474.55 516.11 461.26C545.68 442.62 603.25 406.33 680.79 399.26C768.79 391.26 897.5 419.46 924.59 493.36C941.3 538.95 903.38 558.3 911.76 638.79C912.67 647.53 925.41 758.79 984.47 777.79C1029.97 792.42 1054.4 736.68 1119.2 737.15C1209.58 737.81 1271.97 847.02 1277.46 856.92C1319.71 933.11 1332.1 1050.74 1275.32 1107.13C1225.58 1156.55 1157.33 1124.55 1129.9 1171.28C1104.28 1214.95 1152.99 1261.28 1157.7 1342.37C1158.17 1350.49 1158.53 1476.82 1070.02 1556.23C1047.42 1576.51 1025.59 1587.82 1005.86 1596.87C929.06 1632.07 692.39 1740.55 471.2 1631.08C415.58 1603.55 369.89 1580.95 347.16 1530.55C304.22 1435.38 402.98 1373.55 374.97 1226.87C360.27 1149.87 322.86 1113.49 342.89 1047.22C355.38 1005.89 375.32 1002.22 383.52 957.4C391.13 915.8 377.51 899.41 362.13 812Z" stroke="white" stroke-width="8" stroke-miterlimit="10"/>
        <path id="line1" d="M476.19 1558.37C445.19 1531.44 439.72 1485.25 432 1420.07C430.77 1409.73 425.79 1364.45 433.42 1303.16C442.84 1227.5 459.35 1224.75 461.94 1167.72C464.84 1103.62 444.24 1101.28 447.68 1039.4C451.68 967.02 480.38 961.4 476.19 905.4C471.79 846.55 439.48 844.68 430.58 779.92C422.09 718.21 444.14 666.92 456.24 638.77C469.5 607.92 486.58 568.26 524.67 537.55C594.81 481.01 713.89 472.75 775.58 526.13C812.02 557.66 796.45 582.99 841.16 678.69C878.27 758.09 911.6 829.43 970.91 844.07C1040.13 861.16 1080.29 785.07 1140.57 808.43C1204.99 833.37 1214.12 941.54 1214.71 949.58C1216.09 968.58 1221.22 1039.24 1176.21 1082.17C1129.29 1126.93 1073.4 1098.17 1037.92 1130.65C991.12 1173.53 1085.27 1254 1060.73 1385.86C1057.05 1405.6 1036.96 1501.33 965.2 1534.13C948.04 1541.98 934 1543.45 908.2 1545.54C800.51 1554.25 714.25 1555.42 707.2 1555.54C542.1 1557.86 512.81 1590.18 476.19 1558.37Z" stroke="white" stroke-width="6" stroke-miterlimit="10"/>
    </g>

<g id="body">
<g id="Warstwa 2">
<path id="Vector" d="M705.26 902.05C705.09 900.92 707.04 900.55 708.59 898.25C711.65 893.7 708.08 889.05 707.16 880.19C706.01 869.05 710.45 864.72 706.69 859.76C704.69 857.14 702.56 857.15 699.56 855.48C686.07 847.97 683.38 822.13 688.63 819.36C691.79 817.7 697.35 824.64 700.04 822.69C702.18 821.14 700.39 815.47 699.56 812.23C699.56 812.23 695.99 798.29 700.51 779.92C704.41 764.04 722.45 750.92 740.43 747.6C768.95 742.32 789.01 763.22 793.18 767.6C797.65 772.25 804.92 779.82 805.54 790.41C805.89 796.41 804.09 802.92 802.69 808C799.95 817.92 796.32 824.35 798.41 826.06C800.07 827.41 803.24 824.13 806.49 825.58C810.04 827.17 810.62 833.04 810.77 834.58C811.66 843.67 800.38 847.27 790.77 863.09C789.27 865.57 788.35 867.42 787.92 868.32C784.24 875.95 784.44 879.77 782.69 884.48C781.02 888.96 776.51 893.17 767.48 901.59C760.24 908.34 756.62 911.72 753.7 912.52C745.7 914.71 742.91 909.02 727.56 905.87C715.41 903.35 705.66 904.55 705.26 902.05Z" fill="#D37566"/>
</g>
<g id="Warstwa 3">
<path id="Vector_2" d="M778.93 881.14C780.55 881.74 780.48 884.14 782.25 893.98C783.7 901.98 785.12 909.89 786.53 913.98C792.29 930.45 812.84 925.7 837.86 944.39C840.8 946.59 848.18 952.39 855.92 950.57C857.993 950.015 859.932 949.046 861.62 947.72C871.7 941.33 892.89 961.36 915.8 971.96C925.2 976.31 956.06 988.87 986.13 979.56C997.47 976.05 999.61 972.25 1011.8 970.56C1027.47 968.36 1032.24 973.48 1054.09 974.36C1069.88 975 1084.31 975.59 1091.64 966.76C1096.82 960.52 1092.22 957.09 1097.82 945.37C1103.94 932.56 1110.71 934.04 1118.25 919.23C1121.25 913.43 1121.83 909.96 1126.33 904.03C1129.73 899.56 1134.23 893.8 1140.11 894.03C1143.36 894.16 1147.3 896.14 1148.19 899.25C1148.32 899.69 1148.73 901.35 1146.83 905.25C1145.5 907.98 1143.77 910.25 1138.99 914.88C1133.48 920.24 1132.27 920.67 1130.99 923.43C1129.48 926.62 1128.75 931.02 1130.27 931.99C1131.47 932.74 1133.99 931.34 1135.44 929.67C1137.35 927.47 1136.44 925.93 1137.94 922.72C1139.35 919.77 1140.48 920.37 1144 915.95C1147 912.11 1147 910.67 1149 909.89C1151.28 908.99 1154.71 909.54 1155.95 911.49C1157.59 914.09 1153.95 917.03 1152.38 924.49C1151.02 930.88 1153.2 930.9 1151.85 936.97C1150.23 944.18 1147.04 944.65 1146.32 951.4C1145.8 956.32 1147.32 957.4 1145.85 960.08C1143.95 963.42 1140.76 962.9 1137.29 967.2C1135.62 969.28 1135.87 970.02 1134.2 972.91C1131.49 977.6 1128.86 979.09 1125.65 982.41C1118.83 989.47 1121.72 992.07 1115.65 998.09C1111.56 1002.16 1106.33 1004.9 1100.65 1005.94C1095.96 1006.7 1092.9 1005.78 1090.19 1005.46C1079.1 1004.14 1070.49 1012.36 1060.97 1018.77C1057.19 1021.31 1038.47 1033.91 1016.29 1036.11C998.66 1037.87 991.56 1031.79 975.9 1038.02C968.27 1041.02 967.9 1043.32 960.69 1044.91C949.69 1047.34 944.99 1043.27 929.56 1043.24C915.95 1043.24 917.16 1046.38 909.56 1045.14C892.49 1042.36 887.62 1026.47 877.72 1028.27C872.34 1029.27 870.07 1034.62 865.36 1042.06C853.92 1060.12 843.76 1065.64 834.23 1076.06C807.47 1105.28 782.65 1176.55 796.27 1185.55C803.82 1190.55 824.85 1177.55 842.97 1166.3C852.97 1160.11 866.41 1150.49 878.97 1154.18C881.51 1154.93 882.91 1155.9 886.45 1156.32C896.61 1157.53 899.45 1151.23 909.26 1151.32C915.04 1151.38 914.7 1153.55 926.02 1155.6C930.501 1156.34 935.022 1156.82 939.56 1157.03C952.08 1158.59 963.63 1181.03 967.72 1201.94C974.62 1237.19 960.72 1270.71 948.83 1299.6C947.35 1303.17 943.83 1311.53 938.83 1324.19C929.21 1348.86 930.96 1347.4 926.71 1356.63C915.19 1381.63 907.03 1382.19 904.25 1399.4C902.91 1407.73 902.83 1419.93 900.69 1420.07C899.61 1420.15 899.36 1417.07 896.29 1415.56C894.917 1414.96 893.418 1414.72 891.926 1414.84C890.434 1414.96 888.996 1415.46 887.74 1416.27C885.89 1417.53 885.84 1418.81 884.65 1418.89C882.31 1419.03 881.57 1414.15 878.95 1413.89C877.45 1413.74 876.89 1415.25 872.29 1419.59C869.77 1421.97 868.51 1423.16 866.83 1424.1C863.52 1425.96 862.53 1425.1 860.17 1426.72C856.49 1429.26 856.06 1433.31 855.17 1433.13C854.28 1432.95 853.51 1427.88 854.94 1422.44C857.32 1413.34 863.46 1411.61 867.29 1402.96C869.75 1397.41 869.57 1392.83 869.67 1388.22C870.32 1356.22 881.23 1349.86 877.27 1328.1C874.91 1315.1 871.02 1316.1 870.62 1305.29C869.88 1285.42 882.62 1270.71 880.12 1268.94C878.21 1267.55 869.9 1276.17 866.58 1279.39C829.22 1315.61 756 1314.59 733.87 1309.57C720.101 1306.19 705.665 1306.68 692.16 1311C660.91 1320.34 574.4 1269.77 566.7 1280.34C564.97 1282.72 569.08 1285.65 570.26 1296.03C571.72 1308.86 566.9 1317.31 564.08 1325.97C556.94 1347.97 563.26 1369.44 565.99 1378.72C572.7 1401.58 588.36 1420.91 584.05 1425.29C583.197 1426.12 582.126 1426.7 580.96 1426.96C579.96 1427.13 577.42 1427.25 573.35 1423.39C566.79 1417.17 566.35 1410.2 563.85 1410.32C562.1 1410.41 562.24 1413.83 559.09 1415.79C555.74 1417.87 552.91 1415.65 548.64 1416.03C539.37 1416.84 534.41 1428.92 532.48 1427.91C531.08 1427.16 533.37 1420.56 534.14 1417.69C538.72 1400.69 525.43 1382.9 519.89 1374.69C492.97 1334.77 484.7 1277.4 484.01 1272.27C480.41 1245.89 485.73 1245.43 481.15 1211.2C479.66 1200 477.9 1191.14 482.1 1180.55C488.68 1164.02 504.58 1156.4 508.24 1154.65C522.59 1147.78 535.78 1149 541.99 1149.65C553.32 1150.85 561.4 1154.56 567.65 1157.49C593.34 1169.55 605.65 1187.6 610.42 1184.34C612.36 1183.03 610.62 1179.91 611.61 1172.94C613.22 1161.53 619.85 1155.78 623.25 1149.94C628.59 1140.69 623.85 1134.72 619.25 1105.74C613.63 1070.63 618.09 1063.82 609.99 1038.74C605.99 1026.36 604.72 1027.45 602.62 1018.3C597.53 996.17 603.93 985.39 602.38 966.98C601.13 952.05 596.27 951.47 585.99 925.39C578.59 906.63 574.4 886.27 565.99 845.55C561.34 822.96 561.54 820.77 555.29 790.66C548.37 757.27 547.93 759.06 547.45 752.88C546.36 738.88 548.69 731.11 566.7 676.6C582.11 629.94 586.43 617.37 583.09 601.75C581.18 592.75 580.86 588.23 580.24 579.17C579.56 569.22 578.44 550.84 585 548.28C587.73 547.22 589.34 549.86 593.79 548.52C598.47 547.12 599.79 543.25 603.05 543.77C605.56 544.17 606.22 546.77 608.05 546.38C609.88 545.99 609.55 542.92 611.85 541.63C615.07 539.81 618.85 544.27 622.54 542.34C624.4 541.34 623.76 540.13 625.63 539.25C629.11 537.62 632.42 541.47 635.63 539.73C637.16 538.9 636.73 537.83 638.24 536.88C641.09 535.08 646.84 536.23 649.17 539.49C652.87 544.65 645.48 551.58 649.41 557.31C650.99 559.61 654.11 561.31 657.25 563.02C659.16 564.02 661.25 565.02 662.25 565.39C667.97 567.87 668.63 567.39 669.38 568.48C671.07 570.91 668.98 575.14 665.58 582.03C663.27 586.71 663.11 585.91 661.3 589.87C658.73 595.48 658.69 597.87 656.3 599.37C653.91 600.87 651.03 600.09 648.94 599.85C640.71 598.85 633.15 606.12 628.03 611.02C609.47 628.75 614.62 679.8 616.62 699.65C618.06 713.95 619.62 718.45 617.33 726.98C613.67 740.98 604.4 748.78 605.21 763.81C605.3 765.31 606.4 768.24 606.88 772.81C607.51 778.96 606.72 780.95 607.35 784.69C608.35 790.58 611.8 794.39 613.77 796.81C621.11 805.81 643.33 838.98 641.09 861.68C640.87 863.99 640.09 869.68 643.23 872.37C646.03 874.73 649.41 872.67 653.45 873.08C665.95 874.36 666.73 897.41 681.02 902.79C687.52 905.24 690.29 901.56 701.69 900.41C711.11 899.46 729.86 899.2 742.32 909.41C744.11 910.88 744.41 911.46 745.65 911.79C756.79 914.73 772.19 878.66 778.93 881.14Z" fill="#D37566"/>
<path id="Vector_3" d="M603.44 1288.07C605.29 1287.16 605.9 1283.73 606.29 1281.54C606.41 1280.2 606.816 1278.91 607.48 1277.74C608.26 1276.5 608.95 1276.25 608.91 1275.84C608.78 1274.53 602.56 1274.42 595.48 1273.94C586.53 1273.33 582.05 1273.02 578.48 1272.27C573.71 1271.27 571.77 1270.27 568.38 1271.08C567.38 1271.3 562.38 1272.43 560.78 1276.43C559.7 1279.09 560.63 1281.79 561.49 1284.27C562.63 1287.56 563.56 1287.42 564.94 1290.81C566.119 1293.88 566.722 1297.14 566.72 1300.43C566.8 1302.7 566.59 1303.32 566.36 1307.56C566.08 1312.75 566.36 1313.11 566.12 1316C565.69 1320.46 564.81 1323 565.06 1323.12C565.31 1323.24 565.98 1320.72 568.38 1314.33C569.66 1310.95 570.16 1309.79 570.16 1307.8C570.16 1305.81 569.61 1305.35 569.69 1303.05C569.78 1300.11 570.69 1299.93 570.76 1297.34C570.737 1295.2 570.25 1293.09 569.33 1291.16C568.4 1288.89 567.94 1288.97 566.96 1286.41C565.66 1283.04 566.01 1281.77 566.36 1281.06C566.666 1280.48 567.117 1279.99 567.67 1279.64C568.91 1278.87 570.24 1279.18 571.83 1279.4C575.83 1279.96 575.58 1279.18 578.48 1279.76C580.9 1280.24 580.39 1280.65 584.07 1281.76C587.26 1282.76 588.07 1282.57 591.19 1283.66C591.86 1283.89 591.94 1283.95 594.88 1285.2C601.96 1288.25 602.67 1288.46 603.44 1288.07Z" fill="#A35F58"/>
<path id="Vector_4" d="M825.68 1281.42C827.05 1279.78 828.84 1279.9 832.81 1279.1C834.73 1278.72 835.66 1278.42 850.09 1272.51C868.64 1264.91 873.57 1262.76 880.57 1263.6C885.82 1264.23 887.21 1265.94 887.7 1266.99C888.3 1268.27 888.16 1269.89 885.56 1275.36C882.25 1282.36 880.81 1283.25 879.5 1286.77C877.81 1291.34 878.82 1293.63 878.61 1299.6C878.34 1307.38 876.39 1318.43 874.33 1318.49C872.55 1318.49 870.52 1310.35 870.41 1304.59C870.405 1302.5 870.525 1300.42 870.77 1298.35C870.912 1296.42 871.271 1294.5 871.84 1292.65C872.76 1289.88 873.51 1289.65 874.15 1287.12C874.71 1284.91 874.34 1284.29 874.69 1282.49C875.26 1279.49 876.89 1279.39 878.61 1275.72C879.06 1274.72 880.88 1270.88 879.68 1269.84C879.12 1269.35 878.12 1269.66 877.54 1269.84C875.27 1270.53 874.27 1272.28 872.54 1274.29C870.964 1275.93 869.294 1277.48 867.54 1278.93C863.97 1282.24 862.18 1283.93 861.48 1284.45C858.92 1286.45 858.48 1286.31 854.35 1289.08C850.22 1291.85 850.77 1291.95 847.22 1294.25C842.78 1297.14 839.87 1299.04 837.22 1299.25C835.927 1299.3 834.657 1299.6 833.48 1300.14C832.42 1300.65 832.28 1300.97 831.88 1301.04C829 1301.48 821.2 1286.79 825.68 1281.42Z" fill="#A35F58"/>
<path id="Vector_5" d="M627.86 610.43C627.09 609.64 623.94 611.21 621.98 612.93C620.254 614.542 618.964 616.565 618.23 618.81C616.631 622.808 615.321 626.915 614.31 631.1C612.7 638 611.89 641.45 611.46 644.1C610.384 651.197 609.908 658.373 610.04 665.55C610.04 668.18 610.04 675.38 610.93 686.22C612.63 707.14 614.67 706.22 613.78 713.85C613.53 715.94 610.78 723.85 605.22 739.69C603.08 745.83 601.32 750.69 600.77 757.69C600.69 758.69 600.55 760.84 600.95 769.45C601.47 780.71 601.73 786.34 602.37 789.23C602.97 791.94 606.56 808.11 615.92 810.44C618.21 811.01 621.49 810.92 621.98 809.73C622.31 808.91 621.14 807.96 619.48 805.27C618.546 803.657 617.714 801.987 616.99 800.27C614.21 794.8 611.86 795.15 609.68 790.83C608.43 788.35 608.19 785.61 607.68 780.13C607.28 775.51 607.68 775.01 607.32 770.69C606.77 764.69 605.74 763.64 605.54 760.35C605.28 756.06 606.82 754.18 611.06 745.03C615.89 734.63 618.32 729.31 619.06 723.46C619.542 719.013 619.485 714.524 618.89 710.09C618.29 703.9 617.3 701.29 616.39 692.99C616.09 690.26 615.96 688.14 615.68 683.9C614.87 671.48 614.39 664.23 614.97 654.67C615.2 650.67 615.6 646.6 616.21 642.37C617.37 634.37 617.95 630.37 619.78 625.62C623.45 616.28 628.99 611.6 627.86 610.43Z" fill="#A35F58"/>
<path id="Vector_6" d="M1091.73 1001.33C1088.36 1001.39 1085.01 1001.8 1081.73 1002.55C1072.73 1004.55 1068.19 1008.27 1058.92 1013.78C1051.3 1018.31 1043.97 1022.67 1035.04 1025.9C1024.71 1029.47 1013.89 1031.4 1002.96 1031.6C987.27 1031.95 983.43 1028.48 974.96 1032.5C969.23 1035.22 967.42 1038.5 959.96 1040.34C955.278 1041.36 950.46 1041.6 945.7 1041.05C941.07 1040.71 939.8 1040.05 929.49 1038.73C923.49 1037.96 922.24 1037.96 920.75 1038.2C914.09 1039.25 908.66 1043.82 909.17 1045.2C909.45 1045.92 911.55 1045.8 915.76 1045.56C917.56 1045.45 919.02 1045.27 920.76 1045.02C926.99 1044.13 926.96 1043.78 929.32 1043.6C931.1 1043.46 931.5 1043.6 939.32 1044.66C944 1045.29 946.32 1045.6 947.87 1045.73C953.58 1046.25 956.51 1046.49 960.17 1045.73C962.477 1045.19 964.74 1044.48 966.94 1043.6C969.124 1042.82 971.267 1041.92 973.36 1040.92C976.99 1039.17 977.36 1038.53 979.59 1037.54C982.423 1036.36 985.443 1035.68 988.51 1035.54C995.65 1035.01 998.35 1036.73 1005.26 1037.32C1014.67 1038.12 1022.79 1036.08 1032.7 1033.57C1035.54 1032.86 1037.24 1032.43 1039.65 1031.57C1051.4 1027.57 1060.15 1021.22 1067.1 1016.07C1070.65 1013.44 1073.87 1010.82 1078.86 1008.41C1081.96 1007 1085.22 1006 1088.57 1005.41C1088.67 1003.74 1091.83 1003.55 1091.73 1001.33Z" fill="#A35F58"/>
<path id="Vector_7" d="M781.3 886.85C782.64 887.52 782.44 889.85 782.73 893.14C782.85 894.51 782.78 892.96 784.99 903.84C786.87 913.11 786.82 913.75 787.72 915.6C788.89 918 790.43 921.14 793.78 922.97C796.54 924.47 799.14 924.33 799.24 925.34C799.32 926.08 797.99 926.65 795.24 928.19C789.31 931.49 789.06 932.43 787.76 932.19C787.16 932.1 785.48 931.64 781.82 921.26C779.29 914.1 778.03 910.42 778.02 905.7C778.02 901.87 778.73 901.61 778.37 898.09C777.85 892.86 775.93 890.32 777.37 888.23C778.3 886.99 780.2 886.29 781.3 886.85Z" fill="#A35F58"/>
<path id="Vector_8" d="M777.15 888.6C774.83 888.22 773.06 891.38 770.02 894.54C766.826 897.775 763.032 900.356 758.85 902.14C755.062 903.603 751.03 904.329 746.97 904.28C743.364 904.516 739.745 904.113 736.28 903.09C733.47 902.22 731.47 901.09 727.49 898.82C726 897.97 725.17 897.44 720.6 894.54C717.07 892.31 715.98 891.3 713.47 890.03C711.52 889.03 708.63 887.38 708.24 887.89C707.85 888.4 709.65 890.29 710.97 891.48C712.167 892.484 713.452 893.377 714.81 894.15C717.53 895.92 717.68 896.28 719.62 897.54C721.742 898.891 723.977 900.055 726.3 901.02C736.41 905.54 736.3 907.12 742.61 909.02C745.957 910.066 749.434 910.635 752.94 910.71C756.021 910.864 759.105 910.441 762.03 909.46C763.884 908.756 765.674 907.892 767.38 906.88C769.317 905.799 771.19 904.607 772.99 903.31C774.415 902.394 775.707 901.287 776.83 900.02C777.356 899.412 777.802 898.74 778.16 898.02C778.624 896.976 778.925 895.866 779.05 894.73C779.52 892.14 779.74 890.83 779.32 890.09C779.081 889.705 778.765 889.374 778.391 889.117C778.018 888.861 777.595 888.684 777.15 888.6V888.6Z" fill="#A35F58"/>
<path id="Vector_9" d="M774.03 890.08C774.03 889.65 774.59 889.46 775.51 888.96C776.71 888.3 776.51 888.28 777.74 887.59C778.348 887.16 779.052 886.886 779.79 886.79C780.34 886.79 781.27 886.99 781.54 887.65C781.656 887.956 781.656 888.294 781.54 888.6C781.54 888.77 781.33 889.15 780.54 889.82C779.908 890.323 779.207 890.734 778.46 891.04C778.04 891.219 777.6 891.346 777.15 891.42C776.702 891.519 776.238 891.519 775.79 891.42C775.63 891.42 775.7 891.42 775.05 891.15C774.62 891.01 774.53 890.99 774.42 890.89C774.296 890.795 774.196 890.672 774.129 890.531C774.061 890.391 774.027 890.236 774.03 890.08V890.08Z" fill="#A35F58"/>
</g>
<g id="Warstwa 9">
<path id="Vector_10" d="M539.64 596.35C537.819 598.861 536.149 601.479 534.64 604.19C531.53 609.4 529.98 612 528.94 614.19C526.463 619.578 525.011 625.38 524.66 631.3C524.18 636.3 523.19 646.83 528.22 658.39C532.27 667.69 538.22 673.01 545.69 679.78C550.96 684.53 555.07 688.16 561.69 690.78C568.31 693.4 573.57 693.64 580.94 693.99C588.94 694.36 594.94 694.65 602.32 692.2C609.7 689.75 614.41 685.85 618.32 682.58C625.879 676.611 631.9 668.92 635.88 660.15C639.029 653.076 640.729 645.442 640.88 637.7C640.94 633.1 641.07 626.64 638.03 619.16C636.642 615.861 634.845 612.75 632.68 609.9C626.305 601.448 618.149 594.5 608.79 589.55C603.18 586.62 590.79 580.32 574.21 581.35C566.137 581.911 558.26 584.095 551.05 587.77C547.45 589.66 543.28 591.86 539.64 596.35Z" fill="#3A3A3A"/>
<path id="Vector_11" d="M548.19 624.55C551.8 629.43 552.06 631.11 554.25 631.68C556.84 632.35 559.3 630.76 561.74 629.18C565.066 627.022 567.671 623.919 569.22 620.27C570.11 618.1 572.22 612.99 569.94 609.94C568.35 607.81 566.11 608.65 564.94 606.73C563.25 603.95 565.94 598.81 568.86 595.73C572.44 591.92 576.59 590.95 582.76 589.31C589.76 587.44 596.76 585.15 603.76 583.25C612.86 580.8 622.18 579.25 631.2 576.48C636.52 574.88 641.33 573.23 643.32 575.41C644.82 577.05 644.02 580.04 643.32 582.54C642.32 586.11 640.32 590.1 633.32 597.54C627.11 604.18 623.32 606.72 624.05 610.02C624.402 611.481 625.296 612.753 626.55 613.58C628.73 614.94 632.25 614.65 632.25 614.65C632.25 614.65 639.45 609.03 642.59 606.45C650.35 600.08 654.88 596.36 658.27 590.77C662.17 584.34 666.88 571.66 661.12 563.32C658.33 559.27 654.12 557.79 649.36 556.19C641.36 553.5 633.18 553.19 619.78 555.13C616.29 555.64 611.1 556.51 584.13 564.04C565.57 569.22 560.73 570.84 554.91 575.44C549.967 579 545.981 583.727 543.306 589.2C540.632 594.673 539.352 600.723 539.58 606.81C539.58 609.81 539.64 611.97 540.65 614.65C542.13 618.3 543.76 618.55 548.19 624.55Z" fill="#565656"/>
</g>
<g id="Warstwa 10">
<path id="Vector_12" d="M582.17 563.2C583.561 563.592 585.007 563.754 586.45 563.68C588.21 563.58 589.67 563.5 590.45 562.49C591.45 561.25 590.45 559.86 591.45 558.93C592.45 558 594.25 558.47 595.97 558.93C598.26 559.54 600.73 560.19 602.62 562.25C605.42 565.31 603.47 567.65 606.42 571.52C607.17 572.52 609.27 575.24 612.12 575.32C614.43 575.39 615.65 573.68 616.88 574.32C618.11 574.96 617.18 576.85 618.54 579.07C619.54 580.78 621.78 582.45 623.77 582.16C625.76 581.87 626.29 579.51 628.28 579.55C629.49 579.55 629.57 580.44 631.37 580.98C632.937 581.421 634.605 581.337 636.12 580.74C637.839 579.921 639.195 578.497 639.93 576.74C641.33 573.65 640.15 571.58 641.59 570.56C642.8 569.7 643.96 570.93 645.59 570.08C647.74 568.99 647.66 566.01 648.44 566.08C649.22 566.15 650.01 569.75 650.1 573.21C650.18 576.04 649.8 576.84 649.63 579.87C649.507 582.965 649.664 586.064 650.1 589.13C650.75 595.28 651.1 598.36 652.72 599.13C654.72 600.13 657.49 598.05 657.95 597.71C660.72 595.71 660.49 593.39 662.95 587.71C665.17 582.57 666.43 581.96 668.65 576.07C670.47 571.23 670.28 569.89 669.84 568.94C668.84 566.86 666.76 566.94 662 564.94C657.24 562.94 652.75 560.94 650.83 556.86C649.7 554.47 649.67 551.8 649.64 549.25C649.59 545.47 650.39 544.53 649.64 542.12C649.293 540.941 648.717 539.842 647.945 538.887C647.173 537.931 646.219 537.137 645.14 536.55C644.57 536.27 641.6 534.8 639.68 536.07C637.76 537.34 638.53 539.87 637.07 540.35C635.88 540.74 635.24 539.11 632.79 538.69C631.246 538.47 629.672 538.717 628.27 539.4C625.82 540.54 625.67 542.14 624 542.49C622.06 542.9 621.63 540.74 619.24 540.35C615.97 539.82 612.24 542.98 609.74 545.1C608.2 546.41 607.39 547.39 606.17 547.24C604.41 547.03 604.3 544.74 602.61 544.39C600.26 543.9 599.16 548.06 595.48 548.39C593.31 548.61 592.67 547.27 590.02 547.68C588.634 547.917 587.327 548.487 586.21 549.34C582.21 552.23 581.78 557.2 581.7 558.13C581.543 559.835 581.702 561.553 582.17 563.2V563.2Z" fill="#D37566"/>
<path id="Vector_13" d="M558.41 701.55C559.07 702.77 560.56 702.92 564.35 703.45C574.82 704.91 577.05 705.6 583.12 705.83C589.37 706.06 589.97 705.71 600.23 705.83C607.6 705.91 602.77 705.83 610.45 706.07C611.2 706.07 612.45 706.13 612.98 705.38C613.73 704.29 611.98 702.93 611.64 699.5C611.47 697.71 611.88 697.31 611.55 695.13C611.47 694.61 611.34 693.96 611.1 692.37C610.972 691.662 610.885 690.948 610.84 690.23C610.84 689.37 610.84 688.48 610.84 688.47C610.84 688.46 610.76 688.6 610.84 688.63C610.92 688.66 611.98 687.47 613.51 686.46C614.6 685.74 614.85 685.9 615.29 685.46C616.77 684.18 615.99 681.04 615.65 679.4C614.87 675.64 615.35 671.72 615.17 667.88C615.001 664.036 615.081 660.184 615.41 656.35C615.62 653.88 616.07 650.75 616.96 644.47C617.38 641.47 617.59 640 617.79 638.77C619.19 630.631 621.46 622.665 624.56 615.01C625.94 611.239 627.612 607.582 629.56 604.07C631.028 601.487 632.7 599.026 634.56 596.71C637.79 592.71 638.56 592.97 640.74 590.05C643.25 586.71 647.05 579.99 644.74 577.22C643.37 575.56 640.33 575.96 639.74 576.04C636.53 576.46 635.62 578.63 632.61 580.31C630.48 581.5 629.52 581.21 621.44 581.74C615.68 582.12 612.54 582.33 608.61 582.93C604.486 583.476 600.413 584.352 596.43 585.55C591.51 587.07 590.74 587.91 587.88 587.93C585.873 587.801 583.86 588.042 581.94 588.64C581.019 588.921 580.138 589.322 579.32 589.83C576.32 591.97 576.81 597.73 576.95 600.76C577.23 607.15 575.15 613.42 574.33 619.76C572.77 631.9 572.64 630.24 571.48 639.96C570.61 647.21 570.48 650.19 569.34 657.06C568.59 661.78 567.85 665.51 567.44 667.52C566.1 674.09 564.73 679.37 563.88 682.52C561.82 690.07 560.79 693.84 560.31 694.88C558.93 697.82 557.58 699.88 558.41 701.55Z" fill="#D37566"/>
<path id="Vector_14" d="M611.4 688.55C610.21 687.96 610.21 684.67 610.21 678.09C609.652 664.529 610.852 650.953 613.78 637.7C614.62 633.9 615.68 630.09 615.68 630.09C617.18 624.69 618.56 620.85 619.01 619.64C620.83 614.64 621.77 612.13 623.52 609.64C624.384 608.456 625.333 607.336 626.36 606.29C627.78 604.78 628.49 604.03 628.75 604.17C629.46 604.56 627.25 610.17 625.66 613.68C624.32 616.63 624.11 616.55 623.28 618.68C622.35 621.08 622.35 621.87 621.14 626.52C619.88 631.39 619.67 631.36 619.01 634.36C618.72 635.66 618.55 636.62 617.82 641.73C616.96 647.73 616.53 650.73 616.15 653.85C615.59 658.61 615.3 660.99 615.15 663.59C614.903 666.837 614.983 670.1 615.39 673.33C615.52 674.21 615.9 676.56 616.34 679.99C616.73 682.99 616.78 683.9 616.34 684.99C615.45 687.31 612.7 689.19 611.4 688.55Z" fill="#A35F58"/>
<path id="Vector_15" d="M635.25 577.37C636.877 577.229 638.472 576.838 639.98 576.21C640.86 575.84 641.1 575.64 642.65 574.97C643.47 574.61 644.34 574.28 646.04 573.63C649.28 572.39 648.71 572.63 649.87 572.2C651.78 571.41 651.93 571.2 652.36 571.31C653.96 571.72 654.36 575.14 654.59 576.66C654.99 579.79 654.34 580.13 654.5 583.43C654.72 587.96 656.04 588.98 655.04 590.83C654.04 592.68 652.11 592.58 651.74 594.39C651.37 596.2 652.85 596.97 652.27 598.39C652.13 598.75 651.77 599.39 649.6 600.39C648.048 601.071 646.438 601.609 644.79 602C640.94 603.1 641.46 603.8 638.64 604.4C636.39 604.88 634.36 605.31 632.13 604.49C630.75 603.98 629.68 603.12 628.84 603.6C628.585 603.801 628.38 604.058 628.241 604.351C628.103 604.644 628.034 604.966 628.04 605.29" fill="#D37566"/>
</g>
<g id="Warstwa 5">
<path id="Vector_16" d="M876.25 1326.96C872.62 1332.12 878.36 1335.2 878.19 1350.41C877.98 1369.95 868.44 1371.25 868.46 1390.93C868.46 1400.93 870.94 1406.29 866.52 1412.93C863.34 1417.72 859.89 1418.23 856.01 1424.3C855.2 1425.55 848.18 1436.73 852.11 1441.01C856.61 1445.9 870.11 1434.75 887.34 1435.68C893.352 1432.84 899.11 1429.5 904.55 1425.68C903.17 1416.24 908.25 1404.58 912.06 1395.85C921.95 1373.15 939.37 1359.09 940.06 1349.29C940.186 1345.47 941.117 1341.72 942.79 1338.29C944.25 1335.29 945.12 1335 945.12 1334.02C945.14 1326.15 886.92 1311.76 876.25 1326.96Z" fill="#E2E2E2"/>
<path id="Vector_17" d="M498.47 1317.6C501.2 1312.6 511.72 1315.15 533.4 1316.89C556.91 1318.77 566.11 1317.62 569.05 1323.3C570.58 1326.3 568.64 1328.24 567.38 1336.13C565.86 1345.72 566.94 1353.04 568.09 1360.85C568.65 1364.58 569.77 1370.52 579.26 1393.85C582.26 1401.26 587.26 1408 590.43 1419.99C592.51 1427.75 592.21 1430.57 590.67 1432.1C588.13 1434.64 583.92 1432 568.81 1430.2C560.75 1429.2 561.81 1429.98 555.03 1429.02C550.2 1428.33 546.67 1427.54 541.72 1428.3C537.79 1428.91 536.72 1430.67 535.54 1429.97C532.71 1428.26 537.65 1418.6 537.92 1408.82C538.04 1404.35 537.2 1399.54 526.75 1381.25C524.63 1377.54 506.61 1346.13 498.75 1323.99C498.16 1322.48 497.26 1319.83 498.47 1317.6Z" fill="#E2E2E2"/>
<path id="Vector_18" d="M494.02 1317.42C496.75 1312.42 507.26 1314.97 528.95 1316.71C552.45 1318.6 561.66 1317.44 564.59 1323.12C566.12 1326.12 564.18 1328.06 562.93 1335.96C561.4 1345.54 562.48 1352.86 563.64 1360.67C564.19 1364.4 565.31 1370.34 574.81 1393.67C577.81 1401.08 582.81 1407.83 585.98 1419.81C588.05 1427.57 587.75 1430.39 586.21 1431.93C583.68 1434.46 579.46 1431.82 564.35 1430.02C556.35 1429.02 557.35 1429.8 550.57 1428.84C545.75 1428.15 542.22 1427.36 537.26 1428.12C533.33 1428.73 532.26 1430.49 531.08 1429.79C528.26 1428.08 533.19 1418.43 533.46 1408.64C533.58 1404.17 532.74 1399.36 522.29 1381.07C520.17 1377.36 502.15 1345.96 494.29 1323.81C493.71 1322.31 492.8 1319.65 494.02 1317.42Z" fill="white"/>
<path id="Vector_19" d="M874.43 1318.61C885.43 1303.2 945.5 1317.79 945.5 1325.82C945.5 1326.82 944.6 1327.14 943.09 1330.14C941.364 1333.62 940.406 1337.43 940.28 1341.31C939.58 1351.24 921.58 1365.55 911.37 1388.55C906.55 1399.43 899.74 1414.78 905.75 1424.94C906.48 1426.17 908.75 1429.69 907.36 1431.42C905.36 1433.83 897.36 1431.17 894.51 1430.34C872.62 1424.01 854.9 1440.05 849.51 1434.34C845.45 1430 852.69 1418.67 853.51 1417.4C857.51 1411.26 861.08 1410.74 864.35 1405.88C868.91 1399.11 866.35 1393.66 866.35 1383.54C866.35 1363.59 876.17 1362.28 876.35 1342.47C876.58 1326.96 870.69 1323.85 874.43 1318.61Z" fill="white"/>
</g>
<g id="Warstwa 6">
<path id="Vector_20" d="M551.05 1152.04C550.98 1152.97 556.39 1152.98 563.88 1155.96C571.809 1158.96 578.811 1164 584.19 1170.55C591.52 1179.71 593.26 1189.35 594.19 1194.79C595.14 1200.43 593.29 1202.79 594.91 1208.33C596.74 1214.57 599.68 1216.13 602.39 1221.52C605.54 1227.79 603.63 1229.82 605.24 1242.19C607.6 1260.32 612.55 1262.52 610.24 1272.13C609.77 1274.13 608.02 1278.13 604.54 1286.03C601.36 1293.28 599.78 1296.9 598.48 1298.87C591.3 1309.75 579.95 1312.76 580.66 1314.55C581.25 1316.06 588.59 1312.01 597.41 1314.55C602.03 1315.88 601.77 1317.49 612.03 1323.82C618.97 1328.1 622.53 1330.26 626.64 1330.95C632.07 1331.86 633.52 1330.21 640.18 1330.95C644.493 1331.49 648.694 1332.71 652.63 1334.55C664.63 1339.4 675.95 1330.65 693.98 1328.85C721.37 1326.11 728.83 1342.97 745.98 1335.26C750.19 1333.37 757.41 1328.92 768.43 1328.49C773.2 1328.3 774.33 1329.04 778.43 1329.2C794.04 1329.83 798.63 1319.9 813.36 1317.08C829.88 1313.93 841.97 1323 844.02 1319.22C845.24 1316.97 840.75 1314.05 835.1 1304.97C832.32 1300.48 825.21 1288.75 824.77 1274.31C824.72 1272.83 825.45 1267.72 826.91 1257.56C828.82 1244.24 829.77 1237.56 830.83 1232.25C832.83 1222.03 834.96 1214.7 837.6 1205.52C841.03 1193.58 842.75 1187.6 845.08 1183.07C848.18 1177.07 853.27 1167.15 863.62 1161.32C873.97 1155.49 884.7 1156.55 884.62 1155.98C884.54 1155.41 875.22 1154.1 863.95 1156.69C847.44 1160.48 832.8 1171.32 823.67 1178.07C819.49 1181.17 812.91 1186.34 804.06 1186.27C800.8 1186.27 800.35 1185.53 796.58 1185.2C787.3 1184.39 781.39 1187.97 773.77 1190.55C771.52 1191.31 763.48 1192.24 747.39 1194.11C731.52 1195.96 723.58 1196.88 717.45 1196.97C712.11 1197.04 710.51 1196.77 690.01 1194.83C675.49 1193.45 661.01 1191.23 646.52 1190.19C632.91 1189.19 624.81 1189.19 618.72 1183.07C616.58 1180.9 613.29 1176.58 611.59 1177.36C609.89 1178.14 611.86 1183.02 610.16 1184.13C608.46 1185.24 603.46 1182.27 582.01 1161.68C576.86 1156.74 574.01 1153.89 568.82 1152.06C560.26 1148.98 551.13 1150.83 551.05 1152.04Z" fill="#1E1E1E"/>
<path id="Vector_21" d="M578.67 1313.68C580.67 1313.99 582.33 1313.12 585.62 1311.36C588.43 1310.05 591.016 1308.31 593.28 1306.19C595.11 1304.4 596.7 1301.61 599.88 1296.04C602.46 1291.49 600.45 1294.2 602.55 1290.15C602.97 1289.35 603.23 1288.9 603.08 1288.37C602.69 1286.88 599.68 1286.84 596.08 1286.05C592.25 1285.21 593.26 1284.7 585.75 1282.13C582.95 1281.13 585.04 1282.01 576.84 1279.64C574.832 1278.97 572.707 1278.73 570.6 1278.93C568.06 1279.22 567.27 1280.07 567.03 1280.35C566.79 1280.63 566.03 1281.65 566.32 1284.09C566.64 1287.09 567.99 1288.09 569.17 1290.87C570.352 1293.81 570.841 1296.97 570.6 1300.13C570.4 1303.56 569.42 1305.31 570.6 1307.62C571.146 1308.58 571.873 1309.43 572.74 1310.11C574.19 1311.43 576.17 1313.29 578.67 1313.68Z" fill="black"/>
<path id="Vector_22" d="M844.04 1318.13C844.866 1318.75 845.788 1319.24 846.77 1319.56C847.93 1319.98 848.54 1319.99 851.4 1320.27C855.76 1320.71 856.57 1320.9 857.94 1320.39C858.683 1320.06 859.396 1319.66 860.07 1319.2C861.406 1318.39 862.68 1317.47 863.88 1316.47C864.27 1316.14 864.88 1315.6 867.2 1313.26C870.31 1310.12 870.45 1310.53 870.77 1309.58C871.2 1308.31 870.62 1307.89 870.41 1304.58C870.41 1304.58 870.31 1302.92 870.41 1300.9C870.573 1298.47 871.054 1296.07 871.84 1293.77C875.14 1282.85 873.84 1283.58 875.4 1281.05C876.16 1279.84 878.98 1275.63 879.68 1273.05C879.873 1272.23 879.994 1271.4 880.04 1270.56C880.13 1269.29 880.17 1268.56 879.8 1268.3C879.43 1268.04 878.27 1268.86 877.66 1269.37C876.66 1270.24 872.5 1273.57 872.19 1273.89C871.54 1274.56 869.66 1276.32 865.9 1279.83C863.6 1281.97 861.28 1284.13 858.53 1286.24C855.293 1288.54 851.92 1290.64 848.43 1292.54C841.3 1296.69 837.73 1298.77 835.96 1298.96C834.96 1299.06 832.96 1299.17 832.51 1300.26C832.24 1300.98 832.83 1301.76 833.7 1303C835.25 1305.2 836.6 1307.53 838.09 1309.77C839.71 1312.19 840.52 1313.4 841.09 1314.28C841.801 1315.75 842.805 1317.06 844.04 1318.13Z" fill="black"/>
</g>
<g id="Warstwa 7">
<path id="Vector_23" d="M945.74 980.47C944.954 978.541 943.825 976.769 942.41 975.24C936.98 969.79 929.47 971.36 921.5 970.02C916.22 969.12 910.5 965.46 899.16 958.13C881.95 947.04 880.08 941.8 871.16 941.03C862.98 940.32 862.71 944.53 853.58 943.88C851.58 943.73 845.73 943.1 827.92 932C818.34 926 817.19 921 811.76 921.06C807.54 921.06 806.24 923.65 798.45 928.19C792.361 931.769 785.805 934.488 778.97 936.27C770.657 938.131 762.018 937.97 753.78 935.8C747.42 934.22 737.23 931.69 731.13 925.25C731.31 926 731.48 926.77 731.62 927.55C731.48 926.77 731.31 926 731.13 925.25C729.684 923.747 728.503 922.009 727.64 920.11C726.749 917.902 726.173 915.579 725.93 913.21C720.72 904.75 713.4 897.7 708.58 888.48C705.502 887.24 702.341 886.217 699.12 885.42C688.33 882.42 688.12 885.55 682.02 883.05C672.88 879.31 673.49 872.98 662.29 866.89C654.7 862.76 653.61 865.23 650.41 862.13C642.09 854.13 651.68 839.53 644.23 824.59C641.651 819.844 637.988 815.774 633.54 812.71C610.58 797.55 564.34 817.63 560.79 839.8C560.34 842.59 560.88 843.51 563.16 854.53C567.53 875.53 567.35 880.7 569.82 893.03C574.42 916.03 581.82 932.19 585.5 941.5C604.91 990.95 585.09 1027.04 595.6 1107.84C598.602 1130.7 603.489 1153.27 610.21 1175.32C612.342 1179.08 615.452 1182.19 619.21 1184.32C621.433 1185.51 623.845 1186.32 626.34 1186.7C641.34 1189.16 668.92 1190.34 688.6 1193.83C701.8 1196.17 699.9 1197.51 708.08 1198.1C723.26 1199.2 727.5 1194.41 747.53 1193.35C759.68 1192.71 760.84 1194.35 770.34 1192.88C782.34 1191.04 789.95 1190.64 794.1 1185.27C798.54 1179.54 795.64 1173.21 795.53 1162.46C795.42 1151.11 799.1 1142.38 806.46 1124.92C815.87 1102.58 827.38 1087.57 836.4 1075.97C850.4 1057.97 859.68 1053.89 864.92 1044.6C867.286 1040.59 870.535 1037.17 874.42 1034.6C876.56 1033.2 878.32 1032.09 880.6 1032.22C884.47 1032.45 886.07 1036.03 890.6 1039.83C893.986 1042.58 897.856 1044.67 902.01 1046C919.21 1050.81 952.98 998.42 945.74 980.47Z" fill="#BA4D02"/>
<path id="Vector_24" d="M609.86 1170.93C610.72 1170.02 614.21 1173.45 621.98 1175.93C628.39 1177.93 633.37 1177.93 637.66 1178.06C647.61 1178.33 637.66 1178.83 668.31 1180.92C697.76 1182.92 712.48 1183.92 728.19 1183.77C765.59 1183.4 778.3 1187.93 784.51 1179.49C787.07 1176.02 786.06 1174.09 788.08 1161.67C790.53 1146.57 794.24 1135.76 797.7 1125.67C801.4 1114.87 806.7 1099.53 818.02 1082.9C830.39 1064.77 835.3 1066.61 846.89 1047.97C850.432 1042.29 854.751 1037.13 859.72 1032.64C869.32 1023.94 875.17 1023.43 877.18 1023.37C881.2 1023.36 885.145 1024.46 888.58 1026.55C899.28 1032.33 905.35 1044.36 903.58 1046.15C902.27 1047.46 896.07 1044.05 892.17 1040.81C887.36 1036.81 886.57 1033.52 882.91 1032.61C879.07 1031.61 875.44 1034.15 874 1035.1C870 1037.73 868.53 1041.16 866.87 1044.02C863.28 1050.15 860.12 1051.49 852.97 1058.27C845.45 1065.39 840.79 1071.63 832.65 1082.51C825.58 1091.96 819.33 1100.32 813.05 1112.81C809.51 1119.81 811.85 1116.48 802 1139.54C799.15 1146.19 797.85 1149.07 797.36 1153.8C796.66 1160.62 798.49 1163.19 798.08 1171.62C797.75 1178.2 797.57 1181.87 795.58 1185.16C791.42 1192.04 781.88 1193.09 764.21 1194.79C749.21 1196.23 746.57 1194.79 733.21 1196.93C723.1 1198.58 723.34 1199.65 716.82 1200.13C706.15 1200.93 701.82 1198.37 686.88 1195.5C675.6 1193.26 664.155 1191.95 652.66 1191.58C636.66 1191.15 633.15 1193.22 625.93 1189.8C614.58 1184.47 608.47 1172.4 609.86 1170.93Z" fill="#A34200"/>
<path id="Vector_25" d="M936.58 971.55C934.39 972.97 938.43 979.47 938.01 988.12C937.82 991.83 936.22 995.58 933.01 1002.92C928.24 1013.84 925.86 1019.3 921.78 1023.92C917.029 1029.14 911.496 1033.58 905.38 1037.1C900.38 1039.81 895.73 1041.41 895.94 1043.52C896.15 1045.63 900.61 1046.61 901.11 1046.73C903.736 1047.27 906.464 1047.03 908.95 1046.02C913.546 1044.23 917.642 1041.35 920.89 1037.64C926.55 1031.58 931.48 1026.3 937.28 1016.64C943.61 1006.07 945.66 999.11 946.19 997.21C948.88 987.68 947.97 982.83 946.73 979.75C945.719 976.978 943.844 974.604 941.38 972.98C940.06 972.13 937.77 970.7 936.58 971.55Z" fill="#F2680A"/>
<path id="Vector_26" d="M562.45 850.02C564.45 850.44 565.87 845.48 570.53 840.27C573.81 836.61 578.3 834.27 587.16 829.82C599.22 823.72 605.25 820.67 611.88 820.31C616.934 820.148 621.985 820.711 626.88 821.98C631.52 823.05 634.79 823.81 638.76 825.98C642.93 828.29 645.18 830.71 646.12 829.98C647.06 829.25 645.79 825.57 644.7 823.33C640.57 814.82 632.37 810.78 630.2 809.79C621.53 805.79 613.68 806.55 607.15 807.17C597.067 808.215 587.378 811.643 578.88 817.17C575.078 819.557 571.558 822.369 568.39 825.55C566.032 827.764 564.028 830.327 562.45 833.15C561.285 835.125 560.482 837.292 560.08 839.55C559.41 843.87 560.37 849.55 562.45 850.02Z" fill="#F2680A"/>
<path id="Vector_27" d="M815.94 920.38H815.75C813.056 920.019 810.316 920.493 807.9 921.74C802.1 924.51 795.82 926.49 790.41 929.91C777.8 937.91 750.23 933.16 734.41 920.38C724.85 912.66 714.33 897.8 713.18 892.82C712.875 891.458 712.18 890.214 711.18 889.24C709.3 887.44 705.91 886.39 704.57 887.37C701.42 889.7 709.16 903.89 710.82 906.94C717.05 918.37 721.07 925.74 730.09 932.46C746.09 944.34 764.22 944.18 769.35 944.03C777.37 943.613 785.297 942.106 792.91 939.55C802.53 936.34 802.51 934.35 810.22 932.41C812.883 931.744 815.376 930.528 817.54 928.84C818.626 928.039 819.599 927.093 820.43 926.03C820.166 924.807 819.623 923.661 818.845 922.681C818.066 921.701 817.072 920.914 815.94 920.38V920.38Z" fill="#F2680A"/>
</g>
<g id="Warstwa 4">
<path id="Vector_28" d="M584.08 1426.25C588.08 1429.81 588.83 1435.25 589.3 1438.85C589.82 1442.77 589.25 1446.22 588.11 1453.1C586.56 1462.5 584.89 1465.78 586.93 1469.5C587.935 1471.06 588.731 1472.74 589.3 1474.5C589.98 1476.77 590.59 1478.78 590.02 1480.2C587.94 1485.4 571.26 1480.41 567.92 1486.62C566.6 1489.07 568.47 1491.19 566.49 1494.94C565.28 1497.09 563.46 1498.83 561.26 1499.94C552.45 1504.88 536.85 1497.84 517.26 1497.56C503.91 1497.37 494.26 1500.41 491.84 1495.9C491.41 1495.09 491.45 1494.48 491.84 1486.39C492.3 1476.68 492.29 1476.71 492.31 1476.65C493.05 1474.31 495.09 1470.65 519.4 1459.07C522.69 1457.49 522.72 1457.52 523.2 1457.16C530.84 1451.43 525.73 1440.66 532.47 1428.16C534.37 1424.64 537.29 1419.23 542.47 1418.16C547.9 1417.07 551.31 1421.73 555.78 1419.83C560.5 1417.83 560.43 1411.05 563.14 1411.04C565.68 1411.04 565.48 1416.93 570.51 1421.04C575.54 1425.15 579.45 1422.18 584.08 1426.25Z" fill="#EF8E5E"/>
<path id="Vector_29" d="M585.5 1467.12C582.06 1465.28 577.75 1467.57 571.01 1471.12C567.43 1473.03 565.65 1473.98 564.11 1475.88C560.11 1480.88 562.62 1485.53 560.79 1488.71C554.02 1500.42 494.34 1480.61 491.88 1486.81C491.624 1487.9 491.464 1489.01 491.4 1490.13C491.23 1491.93 490.96 1494.89 491.4 1496.07C492.7 1499.56 503.62 1496.96 515.64 1497.5C526.5 1497.98 531.09 1500.71 547.24 1502.01C551.347 1502.2 555.455 1501.64 559.36 1500.35C565.05 1498.49 566.16 1496.35 566.49 1495.6C567.43 1493.34 566.01 1492.27 566.73 1489.9C568.09 1485.42 574.8 1483.72 575.73 1483.48C582.22 1481.83 585.73 1484.8 588.32 1482.29C590.04 1480.6 589.87 1477.82 589.75 1475.88C589.73 1475.15 589.36 1469.19 585.5 1467.12Z" fill="#C17656"/>
<path id="Vector_30" d="M853.41 1428.8C852.53 1429.58 851.41 1430.94 850.46 1442.87C849.14 1459.72 851.18 1459.77 848.99 1465.03C847.367 1468.87 846.251 1472.9 845.67 1477.03C845.33 1479.43 845.37 1480.61 846.04 1481.6C848.34 1485 856.28 1483.65 858.57 1483.36C872.2 1481.62 878.74 1492.74 900.95 1500.24C900.95 1500.24 930.63 1510.24 958.44 1498.48C959.748 1497.98 960.893 1497.13 961.75 1496.02C964.75 1491.93 961.89 1485.45 960.65 1482.65C959.71 1480.54 956.96 1474.99 949.96 1469.29C941.67 1462.53 938.16 1464.84 928.59 1459.08C921.213 1454.65 915.03 1448.48 910.58 1441.11C906.856 1434.7 904.596 1427.55 903.96 1420.16C903.957 1420.11 903.957 1420.06 903.96 1420.01C903.66 1417.33 898.96 1414.67 895.11 1414.73C890.21 1414.8 889.67 1419.11 884.79 1419.3C880.57 1419.46 879.15 1416.3 875.95 1417.19C873.06 1417.98 873.33 1420.78 870.42 1423.52C864.98 1428.6 858.1 1424.64 853.41 1428.8Z" fill="#EF8E5E"/>
<path id="Vector_31" d="M850.21 1463.8C853.41 1462.6 855.88 1465.29 867.8 1472.8C870.8 1474.66 878.8 1479.8 885.86 1483.25C887.48 1484.06 897.52 1488.95 907.72 1490.86C933.44 1495.66 951.41 1479.86 958.09 1487.53C958.973 1488.66 959.565 1489.98 959.815 1491.39C960.064 1492.8 959.963 1494.25 959.52 1495.61C959.03 1497.06 957.18 1500.9 940.99 1504.16C929.48 1506.48 921.61 1508.06 911.05 1506.06C902.976 1504.42 895.252 1501.37 888.23 1497.06C882.23 1493.54 876 1490.4 870.17 1486.61C867.44 1484.83 865.78 1483.61 863.05 1483.28C857.36 1482.53 854.39 1486.28 850.21 1484.71C847.21 1483.55 845.9 1480.49 845.46 1479.48C842.91 1473.55 845.74 1465.47 850.21 1463.8Z" fill="#C17656"/>
</g>
<g id="Warstwa 8">
<path id="Vector_32" d="M696.15 777.2C699.91 770.38 706.54 765.51 707.27 764.98C710.53 762.62 711.42 762.75 716.86 759.34C724.77 754.34 725.78 752.34 729.99 749.94C736.75 746.13 743.61 746.16 750.19 746.18C762.469 746.309 774.435 750.07 784.58 756.99C790.655 760.837 795.823 765.954 799.73 771.99C802.259 776.058 804.132 780.499 805.28 785.15C808.39 797.77 805.06 808.21 802.28 816.65C799.56 824.82 795.28 833.5 793.7 833.1C792.29 832.75 793.91 825.5 793.19 811.48C792.63 800.48 791.28 797.75 789.19 795.97C785.48 792.86 781.81 794.75 775.05 793.62C760.28 791.14 759.91 779.12 744.75 775.28C742.62 774.74 732.52 772.42 723.54 777.16C718.9 779.61 716.54 782.88 711.92 789.39C708.61 794.03 704.7 799.49 703.33 807.25C702.79 810.37 703.17 810.9 702.33 816.65C701.49 822.4 700.54 828.84 699.33 828.87C697.1 828.93 695.09 808.06 694.79 804.87C692.66 784.33 694.92 779.44 696.15 777.2Z" fill="#141414"/>
</g>
</g>
</g>
<defs>
<clipPath id="clip0">
<rect width="1702.69" height="2027.94" fill="white"/>
</clipPath>
</defs>
</svg>
